<svg viewBox="0 0 120 120" xmlns="http://www.w3.org/2000/svg" role="img" aria-label="NU Coop Connect">
  <rect width="120" height="120" rx="22" fill="#2D2D2D"/>
  <circle cx="60" cy="58" r="44" fill="#C8102E"/>
  <g fill="#FFFFFF" opacity="0.92">
    <circle cx="60" cy="12" r="3"/>
    <circle cx="60" cy="104" r="3"/>
    <circle cx="14" cy="58" r="3"/>
    <circle cx="106" cy="58" r="3"/>
    <circle cx="27" cy="25" r="2.4"/>
    <circle cx="93" cy="25" r="2.4"/>
    <circle cx="27" cy="91" r="2.4"/>
    <circle cx="93" cy="91" r="2.4"/>
  </g>
  <g stroke="#FFFFFF" stroke-width="0.5" opacity="0.35" fill="none">
    <line x1="60" y1="12" x2="60" y2="104"/>
    <line x1="14" y1="58" x2="106" y2="58"/>
    <line x1="27" y1="25" x2="93" y2="91"/>
    <line x1="93" y1="25" x2="27" y2="91"/>
  </g>
  <g>
    <path d="M 41,30 L 50,60 L 30,60 Z" fill="#1A1A1A"/>
    <path d="M 79,30 L 70,60 L 90,60 Z" fill="#1A1A1A"/>
    <path d="M 43,38 L 48,57 L 36,57 Z" fill="#C8102E"/>
    <path d="M 77,38 L 72,57 L 84,57 Z" fill="#C8102E"/>
    <path d="M 30,54 Q 60,44 90,54 L 88,80 Q 80,90 60,90 Q 40,90 32,80 Z" fill="#FFFFFF"/>
    <path d="M 40,54 Q 60,48 80,54 L 77,70 Q 60,66 43,70 Z" fill="#1A1A1A"/>
    <circle cx="48" cy="63" r="2.6" fill="#1A1A1A"/>
    <circle cx="72" cy="63" r="2.6" fill="#1A1A1A"/>
    <circle cx="48.6" cy="62.4" r="0.7" fill="#FFFFFF"/>
    <circle cx="72.6" cy="62.4" r="0.7" fill="#FFFFFF"/>
    <ellipse cx="60" cy="78" rx="3.5" ry="2.4" fill="#1A1A1A"/>
  </g>
</svg>
